<?xml version="1.0" standalone="no"?>
<!DOCTYPE svg PUBLIC "-//W3C//DTD SVG 20010904//EN"
 "http://www.w3.org/TR/2001/REC-SVG-20010904/DTD/svg10.dtd">
<svg version="1.0" xmlns="http://www.w3.org/2000/svg"
 width="512.000000pt" height="512.000000pt" viewBox="0 0 512.000000 512.000000"
 preserveAspectRatio="xMidYMid meet">

<g transform="translate(0.000000,512.000000) scale(0.100000,-0.100000)"
fill="#000000" stroke="none">
<path d="M2340 3591 c-141 -31 -295 -100 -410 -185 -59 -44 -187 -176 -229
-236 l-40 -57 197 -6 c609 -16 1158 -235 1643 -653 l97 -83 6 37 c11 67 6 269
-8 344 -77 402 -372 718 -775 829 -110 31 -362 36 -481 10z"/>
<path d="M1590 2922 c-74 -23 -106 -421 -50 -627 101 -373 383 -654 761 -757
73 -20 107 -23 259 -23 152 0 186 3 260 23 293 80 535 272 674 535 20 38 36
76 35 85 0 9 -46 59 -102 110 -385 352 -830 564 -1339 637 -116 17 -460 29
-498 17z"/>
</g>
</svg>
